<?xml version="1.0" encoding="utf-8"?>
<!-- Generator: Adobe Illustrator 28.2.0, SVG Export Plug-In . SVG Version: 6.00 Build 0)  -->
<svg version="1.1" id="Layer_1" xmlns="http://www.w3.org/2000/svg" xmlns:xlink="http://www.w3.org/1999/xlink" x="0px" y="0px"
	 viewBox="0 0 960 560" style="enable-background:new 0 0 960 560;" xml:space="preserve">
<style type="text/css">
	.st0{fill:#231F20;}
</style>
<sodipodi:namedview  bordercolor="#000000" borderopacity="0.25" id="namedview1" pagecolor="#ffffff">
	
		<inkscape:page  bleed="0" height="266.58267" id="page1" margin="14.2392 35.147999 10.906667 16.481199" width="709.38" x="0" y="0">
		</inkscape:page>
</sodipodi:namedview>
<sodipodi:namedview  bordercolor="#000000" borderopacity="0.25" id="namedview1" pagecolor="#ffffff">
	
		<inkscape:page  bleed="0" height="266.58267" id="page1" margin="14.2392 35.147999 10.906667 16.481199" width="709.38" x="0" y="0">
		</inkscape:page>
</sodipodi:namedview>
<sodipodi:namedview  bordercolor="#000000" borderopacity="0.25" id="namedview1" pagecolor="#ffffff">
	
		<inkscape:page  bleed="0" height="266.58267" id="page1" margin="14.2392 35.147999 10.906667 16.481199" width="709.38" x="0" y="0">
		</inkscape:page>
</sodipodi:namedview>
<sodipodi:namedview  bordercolor="#000000" borderopacity="0.25" id="namedview1" pagecolor="#ffffff">
	
		<inkscape:page  bleed="0" height="266.58267" id="page1" margin="14.2392 35.147999 10.906667 16.481199" width="709.38" x="0" y="0">
		</inkscape:page>
</sodipodi:namedview>
<sodipodi:namedview  bordercolor="#000000" borderopacity="0.25" id="namedview1" pagecolor="#ffffff">
	
		<inkscape:page  bleed="0" height="266.58267" id="page1" margin="14.2392 35.147999 10.906667 16.481199" width="709.38" x="0" y="0">
		</inkscape:page>
</sodipodi:namedview>
<path id="path1_00000040552829259375820180000000407444372611739304_" class="st0" d="M318.8,374.4v25H168.2V177.5H316v25H196.3
	v71.9h104.1v23.4H196.3v76.6H318.8z"/>
<path id="path2_00000023269774875681549680000013359663320654856611_" class="st0" d="M380.6,177.5L454,364.1l73.1-186.6h29.7
	l-90.6,221.9h-24.4l-90.9-221.9H380.6z"/>
<path id="path3_00000067208539045908574730000016000404597009629083_" class="st0" d="M765.6,392.1L678,177.5h-23.8l-87.9,214.6
	l-3,7.3h30l25.9-65h93.1l26.2,65h30L765.6,392.1z M624.8,312.5L666.1,210l40,102.5H624.8z"/>
<path id="path4_00000060731193739249754640000010547495523511360663_" class="st0" d="M803.5,177.5h28.1v221.9h-28.1V177.5z"/>
<rect x="566.3" y="156.6" class="st0" width="199.3" height="4"/>
<rect x="557.9" y="188.8" class="st0" width="4" height="199.3"/>
</svg>
